<svg width="400" height="400" viewBox="0 0 400 400" fill="none" xmlns="http://www.w3.org/2000/svg">
<path d="M270.661 0C245.952 0 221.463 4.97834 197.78 9.79805C174.242 14.5812 152.023 19.108 129.767 19.108C112.477 19.108 97.1024 16.2772 82.7897 10.457C81.4751 9.95577 80.0843 9.68338 78.6777 9.65163C78.5069 9.63943 78.3726 9.55402 78.2018 9.55402C78.0554 9.55402 77.9456 9.62723 77.7992 9.63944C76.3908 9.67582 74.9994 9.95656 73.6871 10.4692C73.4553 10.5668 73.2479 10.701 73.016 10.8108C72.467 11.0548 71.9057 11.2745 71.3932 11.6283C70.8807 11.97 70.4537 12.4215 70.0022 12.8363C69.8192 13.0071 69.6117 13.1414 69.4409 13.3244C68.5032 14.309 67.7362 15.4431 67.1714 16.6799C67.0494 16.9483 66.9639 17.2168 66.8541 17.4974C66.3538 18.8518 66 20.2672 66 21.7436V387.798C66 391.034 67.2855 394.138 69.5738 396.426C71.8621 398.714 74.9657 400 78.2018 400C81.4379 400 84.5415 398.714 86.8298 396.426C89.1181 394.138 90.4036 391.034 90.4036 387.798V203.941C102.776 207.199 115.747 208.932 129.779 208.932C154.488 208.932 178.977 203.953 202.66 199.134C226.198 194.351 248.417 189.824 270.673 189.824C287.963 189.824 303.325 192.655 317.638 198.475C319.492 199.226 321.501 199.511 323.491 199.304C325.48 199.096 327.388 198.404 329.047 197.287C330.706 196.17 332.065 194.663 333.006 192.898C333.946 191.133 334.439 189.164 334.44 187.164V21.7436C334.439 19.318 333.716 16.9476 332.362 14.9351C331.008 12.9225 329.085 11.3592 326.838 10.4448C309.548 3.40431 291.172 0 270.661 0ZM310.036 170.276C297.18 166.968 283.948 165.34 270.673 165.432C245.965 165.432 221.476 170.411 197.792 175.23C174.267 180.026 152.035 184.54 129.779 184.54C115.503 184.54 102.544 182.612 90.4036 178.671V38.6554C102.752 41.901 115.771 43.4995 129.779 43.4995C154.488 43.4995 178.977 38.5211 202.66 33.7014C226.198 28.9061 248.417 24.3914 270.673 24.3914C284.937 24.3914 297.908 26.3193 310.049 30.2605V170.276H310.036Z" fill="#331A01"/>
</svg>
