<svg width="400" height="400" viewBox="0 0 400 400" fill="none" xmlns="http://www.w3.org/2000/svg">
<path d="M386.566 259.213C385.428 257.373 383.417 256.25 381.25 256.25H355.948C353.618 230.284 336.903 207.998 312.5 198.487V18.75C312.5 15.2985 309.702 12.5 306.25 12.5H18.7502C15.2987 12.5 12.5002 15.2985 12.5002 18.75V381.25C12.5002 384.702 15.2987 387.5 18.7502 387.5H306.25C309.702 387.5 312.5 384.702 312.5 381.25V318.75H356.25C358.618 318.75 360.782 317.413 361.841 315.295L386.841 265.295C387.808 263.358 387.705 261.057 386.566 259.213ZM343.408 256.25H194.121C194.297 254.652 194.514 253.062 194.824 251.497C194.86 251.311 194.918 251.131 194.956 250.946C195.268 249.45 195.635 247.969 196.065 246.511C196.23 245.954 196.433 245.411 196.614 244.859C196.969 243.782 197.34 242.71 197.76 241.658C198.003 241.048 198.272 240.45 198.537 239.849C198.966 238.874 199.419 237.91 199.905 236.961C200.212 236.36 200.529 235.765 200.859 235.175C201.381 234.24 201.937 233.323 202.515 232.416C202.867 231.863 203.213 231.306 203.586 230.764C204.245 229.804 204.953 228.873 205.675 227.951C206.023 227.507 206.349 227.049 206.712 226.614C207.823 225.278 208.988 223.977 210.233 222.733C220.862 212.103 234.986 206.25 250 206.25H287.5C293.256 206.25 298.932 207.12 304.37 208.835C325.913 215.628 340.988 234.247 343.408 256.25ZM300 375H25.0002V25H300V194.888C299.699 194.833 299.392 194.815 299.09 194.763C297.804 194.543 296.509 194.376 295.21 194.23C294.58 194.16 293.955 194.067 293.323 194.014C291.391 193.851 289.451 193.75 287.5 193.75H250C231.647 193.75 214.383 200.903 201.395 213.895C199.858 215.431 198.418 217.036 197.047 218.687C196.588 219.239 196.179 219.822 195.739 220.387C194.862 221.511 193.996 222.641 193.195 223.811C192.722 224.502 192.292 225.215 191.846 225.922C191.154 227.016 190.476 228.117 189.85 229.246C189.428 230.006 189.036 230.779 188.644 231.553C188.074 232.679 187.533 233.815 187.027 234.969C186.678 235.766 186.343 236.567 186.025 237.376C185.56 238.56 185.138 239.758 184.74 240.967C184.474 241.776 184.204 242.582 183.968 243.401C183.6 244.678 183.293 245.974 183 247.275C182.825 248.047 182.63 248.811 182.482 249.59C182.198 251.091 181.995 252.61 181.81 254.136C181.738 254.737 181.627 255.328 181.57 255.933C181.56 256.04 181.538 256.143 181.528 256.25H156.25C154.084 256.25 152.072 257.373 150.934 259.213C149.796 261.057 149.692 263.358 150.659 265.295L175.659 315.295C176.718 317.413 178.882 318.75 181.25 318.75H300V375ZM352.387 306.25H306.25H185.114L166.364 268.75H187.5H350H371.137L352.387 306.25Z" fill="#331A01"/>
<path d="M68.7502 93.75H225C228.452 93.75 231.25 90.9515 231.25 87.5C231.25 84.0485 228.452 81.25 225 81.25H68.7502C65.2987 81.25 62.5002 84.0485 62.5002 87.5C62.5002 90.9515 65.2987 93.75 68.7502 93.75ZM68.7502 125H200C203.452 125 206.25 122.202 206.25 118.75C206.25 115.298 203.452 112.5 200 112.5H68.7502C65.2987 112.5 62.5002 115.298 62.5002 118.75C62.5002 122.202 65.2987 125 68.7502 125ZM68.7502 156.25H156.25C159.702 156.25 162.5 153.452 162.5 150C162.5 146.548 159.702 143.75 156.25 143.75H68.7502C65.2987 143.75 62.5002 146.548 62.5002 150C62.5002 153.452 65.2987 156.25 68.7502 156.25ZM125 175H68.7502C65.2987 175 62.5002 177.798 62.5002 181.25C62.5002 184.702 65.2987 187.5 68.7502 187.5H125C128.452 187.5 131.25 184.702 131.25 181.25C131.25 177.798 128.452 175 125 175ZM106.25 206.25H68.7502C65.2987 206.25 62.5002 209.048 62.5002 212.5C62.5002 215.952 65.2987 218.75 68.7502 218.75H106.25C109.702 218.75 112.5 215.952 112.5 212.5C112.5 209.048 109.702 206.25 106.25 206.25ZM262.5 212.5H250C246.549 212.5 243.75 215.298 243.75 218.75C243.75 222.202 246.549 225 250 225H262.5C265.952 225 268.75 222.202 268.75 218.75C268.75 215.298 265.952 212.5 262.5 212.5ZM237.5 231.25H225C221.549 231.25 218.75 234.048 218.75 237.5C218.75 240.952 221.549 243.75 225 243.75H237.5C240.952 243.75 243.75 240.952 243.75 237.5C243.75 234.048 240.952 231.25 237.5 231.25ZM287.5 231.25H275C271.549 231.25 268.75 234.048 268.75 237.5C268.75 240.952 271.549 243.75 275 243.75H287.5C290.952 243.75 293.75 240.952 293.75 237.5C293.75 234.048 290.952 231.25 287.5 231.25ZM68.7502 237.5C65.2987 237.5 62.5002 240.298 62.5002 243.75V256.25C62.5002 259.702 65.2987 262.5 68.7502 262.5C72.2018 262.5 75.0002 259.702 75.0002 256.25V243.75C75.0002 240.298 72.2018 237.5 68.7502 237.5ZM93.7502 237.5C90.2987 237.5 87.5002 240.298 87.5002 243.75V256.25C87.5002 259.702 90.2987 262.5 93.7502 262.5C97.2018 262.5 100 259.702 100 256.25V243.75C100 240.298 97.2018 237.5 93.7502 237.5ZM118.75 237.5C115.299 237.5 112.5 240.298 112.5 243.75V256.25C112.5 259.702 115.299 262.5 118.75 262.5C122.202 262.5 125 259.702 125 256.25V243.75C125 240.298 122.202 237.5 118.75 237.5Z" fill="#331A01"/>
</svg>
