<svg width="100" height="100" viewBox="0 0 100 100" fill="none" xmlns="http://www.w3.org/2000/svg">
<g clip-path="url(#clip0_24_76)">
<path d="M24.8837 5.29328C13.9186 7.03285 4.98616 14.5189 1.54611 24.839C-2.81259 37.876 2.07385 52.5549 15.834 67.8396C23.5546 76.4007 32.9952 84.3363 45.4068 92.6823L50 95.7705L54.5933 92.6823C67.0048 84.3363 76.4454 76.4007 84.166 67.8396C97.9262 52.5549 102.813 37.876 98.4539 24.839C94.5252 13.092 83.3646 5.01964 71.0117 5.00009C63.682 5.00009 57.0169 7.50195 51.5637 12.3102C50.7623 13.0138 50.0586 13.6002 50 13.6002C49.9414 13.6002 49.2377 13.0138 48.4363 12.3102C44.019 8.40105 38.5462 5.91875 32.7998 5.2151C30.6497 4.94146 26.8578 4.98055 24.8837 5.29328Z" fill="#331A01"/>
</g>
<defs>
<clipPath id="clip0_24_76">
<rect width="100" height="100" fill="white"/>
</clipPath>
</defs>
</svg>
