<svg width="100" height="100" viewBox="0 0 100 100" fill="none" xmlns="http://www.w3.org/2000/svg">
<path d="M74.5713 17.8573H47.2596L45.9739 6.73344C45.896 6.05846 45.6273 5.41969 45.1991 4.8921C44.771 4.36451 44.2012 3.97 43.5567 3.75488L32.8425 0.183456C32.3975 0.0350627 31.9277 -0.0242344 31.4598 0.00895024C30.9919 0.0421349 30.5351 0.167152 30.1156 0.376862C29.696 0.586573 29.3218 0.87687 29.0144 1.23118C28.7071 1.58549 28.4725 1.99687 28.3241 2.44184C28.1757 2.88681 28.1164 3.35665 28.1496 3.82454C28.1828 4.29242 28.3078 4.74919 28.5175 5.16876C28.7272 5.58833 29.0175 5.96249 29.3718 6.26987C29.7261 6.57725 30.1375 6.81183 30.5825 6.96022L39.1392 9.81129L40.0714 17.8573H24.5714C23.6242 17.8573 22.7158 18.2336 22.046 18.9034C21.3763 19.5732 21 20.4816 21 21.4288V50.0001C21.0116 56.9532 23.5561 63.6639 28.1575 68.8767C32.759 74.0894 39.102 77.4471 45.9999 78.3215V90.0661L34.4192 92.9614C33.5714 93.1709 32.8298 93.6838 32.3345 94.4031C31.8392 95.1223 31.6246 95.9982 31.7313 96.8649C31.838 97.7317 32.2586 98.5293 32.9135 99.107C33.5685 99.6847 34.4124 100.002 35.2857 100H63.857C64.7284 99.9996 65.5695 99.6808 66.2221 99.1034C66.8747 98.5261 67.2937 97.73 67.4002 96.8653C67.5068 96.0005 67.2935 95.1266 66.8005 94.4081C66.3076 93.6896 65.569 93.1761 64.7238 92.9643L53.1428 90.0675V78.3215C60.0407 77.4471 66.3838 74.0894 70.9852 68.8767C75.5866 63.6639 78.1311 56.9532 78.1427 50.0001V21.4288C78.1427 20.4816 77.7664 19.5732 77.0967 18.9034C76.4269 18.2336 75.5185 17.8573 74.5713 17.8573ZM70.9999 25.0002V33.3494C69.7898 33.1256 68.6026 32.7924 67.4527 32.3541C64.4174 31.1571 61.1745 30.5756 57.9124 30.6434C54.8434 30.5746 51.7893 31.0894 48.9124 32.1602L48.0842 25.0002H70.9999ZM40.8953 25.0002L41.8899 33.6141C41.6621 33.6194 41.4882 33.6427 41.2428 33.6427C38.8039 33.7062 36.378 33.2675 34.1157 32.3541C32.1951 31.6054 30.1887 31.0991 28.1428 30.847V25.0002H40.8953ZM49.5714 71.4286C43.89 71.4225 38.4432 69.1629 34.4259 65.1456C30.4086 61.1283 28.149 55.6814 28.1428 50.0001V38.0791C29.3559 38.3024 30.546 38.6358 31.6985 39.0751C34.735 40.2722 37.9792 40.8537 41.2424 40.7859C44.5051 40.8537 47.7487 40.2722 50.7846 39.0751C53.047 38.1622 55.4728 37.7235 57.9117 37.7862C60.3483 37.7226 62.772 38.1614 65.0317 39.0751C66.9508 39.8234 68.9556 40.3296 70.9999 40.5823V50.0001C70.9937 55.6814 68.7341 61.1283 64.7168 65.1456C60.6995 69.1629 55.2527 71.4225 49.5714 71.4286Z" fill="#331A01"/>
<path d="M46.625 62.5C44.1394 62.4974 41.7563 61.5089 39.9987 59.7513C38.2411 57.9937 37.2526 55.6106 37.25 53.125C37.25 52.2962 36.9208 51.5013 36.3347 50.9153C35.7487 50.3292 34.9538 50 34.125 50C33.2962 50 32.5013 50.3292 31.9153 50.9153C31.3292 51.5013 31 52.2962 31 53.125C31.0048 57.2675 32.6525 61.239 35.5818 64.1682C38.511 67.0975 42.4825 68.7452 46.625 68.75C47.4538 68.75 48.2487 68.4208 48.8347 67.8347C49.4208 67.2487 49.75 66.4538 49.75 65.625C49.75 64.7962 49.4208 64.0013 48.8347 63.4153C48.2487 62.8292 47.4538 62.5 46.625 62.5Z" fill="#331A01"/>
</svg>
