<svg width="92" height="100" viewBox="0 0 92 100" fill="none" xmlns="http://www.w3.org/2000/svg">
<path d="M72.0596 0.283615C66.8371 1.26161 62.5535 4.52811 60.2063 9.28117C58.8371 12.0587 58.5632 13.2518 58.5632 16.4205C58.5632 17.868 58.6219 19.4132 58.7002 19.8631L58.8566 20.6455L43.6977 29.2909C35.3652 34.044 28.4214 37.9364 28.2845 37.9364C28.128 37.9364 27.8542 37.7408 27.639 37.5061C27.0327 36.8215 24.5486 35.2763 23.0229 34.6504C20.7735 33.7115 18.7197 33.379 15.9422 33.4963C13.0669 33.6137 11.8346 33.9267 9.27229 35.1785C6.0449 36.7824 3.63904 39.11 1.95688 42.2592C-3.03089 51.6675 1.91776 63.1687 12.2454 66.1418C14.2601 66.7286 18.9349 66.7873 20.9104 66.2396C22.7491 65.731 25.5266 64.3227 26.9349 63.1883C27.5999 62.6406 28.2454 62.1907 28.3432 62.1907C28.4606 62.1907 35.3456 66.0636 43.6586 70.8166C56.9398 78.3863 58.7588 79.4817 58.7002 79.8533C58.6806 80.088 58.6024 81.3985 58.5437 82.7677C58.4263 84.9193 58.4654 85.5061 58.8371 87.11C60.2063 93.0367 64.5877 97.6919 70.4948 99.4719C72.0596 99.9413 72.5681 100 75.0914 100C77.6146 100 78.1231 99.9413 79.6879 99.4719C84.2258 98.1027 87.8835 95.0513 89.9569 90.9242C91.0914 88.6748 91.5412 86.934 91.6586 84.176C91.8933 79.0709 90.2112 74.9242 86.4752 71.3447C83.2478 68.2738 79.5706 66.8264 74.9936 66.8264C70.6904 66.846 66.7784 68.3912 63.8444 71.2078L62.8664 72.1467L60.0302 70.5232C58.4654 69.643 51.6586 65.7506 44.9104 61.9169C35.3065 56.4401 32.6464 54.8362 32.7246 54.5819C33.4874 52.0587 33.4874 48.0685 32.7246 45.5452C32.6464 45.291 35.4043 43.6284 45.595 37.8191C52.7344 33.7702 59.5412 29.8973 60.7148 29.2127L62.8664 27.9804L63.8444 28.9193C65.7026 30.7188 68.3041 32.1271 71.0816 32.8704C72.2747 33.1834 73.2136 33.2812 75.0914 33.2812C78.1231 33.2812 79.8249 32.8704 82.661 31.4817C87.0816 29.3105 90.4263 24.89 91.4239 19.9609C91.8738 17.7897 91.7368 14.2103 91.15 12.1565C88.7637 3.9022 80.4117 -1.30074 72.0596 0.283615Z" fill="#331A01"/>
</svg>
