<svg width="100" height="100" viewBox="0 0 100 100" fill="none" xmlns="http://www.w3.org/2000/svg">
<path fill-rule="evenodd" clip-rule="evenodd" d="M5.9684 6.0081C4.30306 6.09267 2.73953 6.83533 1.62175 8.0727C0.503981 9.31007 -0.0764691 10.9408 0.00809877 12.6061C0.0926666 14.2715 0.835325 15.835 2.0727 16.9528C3.31007 18.0705 4.94079 18.651 6.60613 18.5664H93.6314C94.4635 18.5782 95.2896 18.4245 96.0617 18.1142C96.8339 17.8039 97.5366 17.3433 98.1292 16.759C98.7218 16.1748 99.1923 15.4786 99.5135 14.7109C99.8346 13.9433 100 13.1194 100 12.2873C100 11.4551 99.8346 10.6313 99.5135 9.86359C99.1923 9.09592 98.7218 8.39974 98.1292 7.81549C97.5366 7.23125 96.8339 6.77061 96.0617 6.46033C95.2896 6.15005 94.4635 5.99633 93.6314 6.0081H6.60613C6.39369 5.9973 6.18084 5.9973 5.9684 6.0081ZM5.9684 43.6831C4.30306 43.7677 2.73953 44.5103 1.62175 45.7477C0.503981 46.9851 -0.0764691 48.6158 0.00809877 50.2811C0.0926666 51.9464 0.835325 53.51 2.0727 54.6278C3.31007 55.7455 4.94079 56.326 6.60613 56.2414H93.6314C94.4635 56.2532 95.2896 56.0995 96.0617 55.7892C96.8339 55.4789 97.5366 55.0183 98.1292 54.434C98.7218 53.8498 99.1923 53.1536 99.5135 52.3859C99.8346 51.6182 100 50.7944 100 49.9622C100 49.1301 99.8346 48.3062 99.5135 47.5386C99.1923 46.7709 98.7218 46.0747 98.1292 45.4905C97.5366 44.9062 96.8339 44.4456 96.0617 44.1353C95.2896 43.825 94.4635 43.6713 93.6314 43.6831H6.60613C6.39369 43.6723 6.18084 43.6723 5.9684 43.6831ZM5.9684 81.3581C4.30306 81.4426 2.73953 82.1853 1.62175 83.4227C0.503981 84.66 -0.0764691 86.2908 0.00809877 87.9561C0.0926666 89.6214 0.835325 91.185 2.0727 92.3027C3.31007 93.4205 4.94079 94.001 6.60613 93.9164H93.6314C94.4635 93.9282 95.2896 93.7744 96.0617 93.4642C96.8339 93.1539 97.5366 92.6932 98.1292 92.109C98.7218 91.5248 99.1923 90.8286 99.5135 90.0609C99.8346 89.2932 100 88.4694 100 87.6372C100 86.8051 99.8346 85.9812 99.5135 85.2136C99.1923 84.4459 98.7218 83.7497 98.1292 83.1655C97.5366 82.5812 96.8339 82.1206 96.0617 81.8103C95.2896 81.5 94.4635 81.3463 93.6314 81.3581H6.60613C6.39369 81.3473 6.18084 81.3473 5.9684 81.3581Z" fill="#331A01"/>
</svg>
