<svg width="100" height="100" viewBox="0 0 100 100" fill="none" xmlns="http://www.w3.org/2000/svg">
<g clip-path="url(#clip0_24_71)">
<path d="M95.6661 53.288C94.5791 53.288 93.4922 52.8533 92.6226 52.0924L50.0139 10.462L7.40522 52.0924C5.66609 53.7228 2.9487 53.7228 1.20957 51.9837C-0.420867 50.2446 -0.420867 47.5272 1.31826 45.788L46.9704 1.22283C48.7096 -0.407609 51.3183 -0.407609 53.0574 1.22283L98.7096 45.788C100.449 47.4185 100.449 50.2446 98.8183 51.9837C97.9487 52.8533 96.753 53.288 95.6661 53.288ZM86.1009 95.6793V53.1794C86.1009 50.788 84.1443 48.8315 81.753 48.8315C79.3617 48.8315 77.4052 50.788 77.4052 53.1794V91.3315H63.8183V68.0706C63.8183 64.9185 61.2096 62.3098 58.0574 62.3098H41.9704C38.8183 62.3098 36.2096 64.9185 36.2096 68.0706V91.3315H22.6226V53.1794C22.6226 50.788 20.6661 48.8315 18.2748 48.8315C15.8835 48.8315 13.927 50.788 13.927 53.1794V95.6793C13.927 98.0707 15.8835 100.027 18.2748 100.027H40.5574C42.9487 100.027 44.9052 98.0707 44.9052 95.6793V71.0054H55.2313V95.6793C55.2313 98.0707 57.1878 100.027 59.5791 100.027H81.8617C84.253 100.027 86.1009 98.0707 86.1009 95.6793Z" fill="#331A01"/>
</g>
<defs>
<clipPath id="clip0_24_71">
<rect width="100" height="100" fill="white"/>
</clipPath>
</defs>
</svg>
