<svg width="503" height="549" viewBox="0 0 503 549" fill="none" xmlns="http://www.w3.org/2000/svg">
<path d="M77.9 2.17853C56.6 6.97852 35 20.9285 22.85 38.0285C7.1 60.2285 0.5 82.8785 0.5 115.428C0.5 139.579 3.35 154.729 11.45 173.928C20.15 194.629 40.25 219.829 62.15 237.229C71.6 244.579 71.6 244.729 70.7 250.879C68.6 265.579 63.5 287.329 56.45 312.379C52.4 327.229 49.1 339.529 49.4 339.679C49.7 339.979 62.75 337.579 78.35 334.279C123.2 325.279 140.9 323.479 175.85 324.379C192.35 324.829 212.9 326.329 221.6 327.679C241.1 330.679 278.15 340.129 294.8 346.129C301.55 348.679 307.1 350.479 307.1 350.029C307.1 349.729 301.25 346.429 294.05 342.829C228.2 309.829 157.7 298.129 91.7 309.529C78.8 311.629 79.4 312.829 82.85 294.979C84.05 288.529 85.1 282.979 85.1 282.679C85.1 280.729 131.15 274.729 155.9 273.529C207.35 270.979 264.2 285.229 309.2 312.079C315.65 315.829 316.25 315.979 312.5 312.829C298.1 300.829 260.15 281.629 233.45 273.229C202.55 263.329 191.75 261.829 148.85 261.829C127.4 261.679 104.75 262.129 98.45 262.729L87.05 263.779L86.15 243.679C84.65 212.779 77.9 174.678 70.85 156.678L68.6 150.678L69.35 157.579C72.8 186.079 74 218.929 71.75 218.929C67.55 218.929 45.8 191.178 38.3 176.178C13.1 126.529 27.8 56.1785 67.25 36.8285C79.25 31.1285 97.7 26.7785 110.6 26.7785C131.9 26.9285 164.15 37.8785 183.5 51.8285C194.15 59.4785 194.6 59.6285 192.05 55.2785C187.85 47.9285 171.2 32.0285 160.25 24.8285C129.05 4.42853 101.6 -3.2215 77.9 2.17853Z" fill="#331A01"/>
<path d="M349.85 35.1785C319.4 40.1285 297.35 48.3785 247.1 73.4285C189.65 102.228 170.45 108.529 150.35 105.078C133.25 102.228 119.3 94.5785 102.05 78.9785C87.6502 65.9285 87.8002 65.9285 90.3502 73.2785C98.3002 95.9285 113.45 114.229 131.9 123.378C162.5 138.678 193.55 132.979 269.15 98.0285C303.2 82.2785 318.8 76.2785 338.75 71.3285C398.45 56.6285 445.1 69.5285 462.2 105.678C476 134.928 475.55 178.879 461.15 206.178C455.45 216.979 438.5 235.128 427.1 242.928C412.4 252.978 390.35 262.278 373.1 266.028L369.35 266.778V247.728C369.35 230.628 369.05 227.928 365.75 221.928C361.25 213.229 355.85 207.379 348.35 203.479C342.8 200.479 340.25 200.178 315.35 200.178C293.6 200.329 283.4 201.079 262.7 204.379C248.6 206.479 229.55 209.028 220.25 209.778C181.25 213.229 142.55 204.229 109.7 183.829L100.85 178.279L106.85 183.678C125.3 200.329 150.35 213.678 174.2 219.678C195.65 225.078 218.6 226.578 249.05 224.628C263.3 223.729 289.1 222.828 306.65 222.828C337.85 222.678 338.45 222.678 342.05 226.128C348.35 232.128 351.65 242.328 353.75 261.678C355.7 281.778 354.8 312.528 351.35 342.229C350.15 352.279 349.25 361.279 349.25 362.179C349.4 364.729 356.3 336.229 360.35 315.679C362.6 304.879 364.55 294.679 365 292.879C365.45 290.328 366.95 289.578 373.4 288.679C425.45 281.929 469.7 253.278 489.35 213.678C493.1 206.178 497.15 196.129 498.35 191.178C506.45 159.229 503.6 119.178 491 92.4785C478.1 64.4285 456.5 46.7285 424.1 37.4285C409.25 33.0785 370.1 31.8785 349.85 35.1785Z" fill="#331A01"/>
<path d="M156.95 424.878C132.8 433.878 117.05 462.678 114.05 503.028C113.6 509.628 112.7 515.478 112.1 515.928C111.5 516.378 109.85 518.928 108.5 521.478C105.35 527.778 99.95 531.228 94.55 530.628C91.1 530.328 90.2 529.428 89.9 525.378C89.45 521.628 97.85 477.378 101 465.978C101.75 463.728 100.55 463.428 89.75 463.428C83 463.428 77.6 463.878 77.6 464.478C77.6 464.928 74.9 478.128 71.6 493.578C64.85 525.228 64.4 530.928 68.3 538.428C75.2 552.378 99.2 548.028 110.75 530.778L114.8 524.478L117.35 530.328C122.6 542.928 131.45 547.878 148.85 548.028C159.2 548.178 162.2 547.578 170.6 543.528C176 540.978 182.6 536.778 185.15 534.378L189.95 529.728L192.95 534.828C197.45 542.478 204.2 545.928 214.7 545.928C234.5 545.928 248.6 531.678 253.7 506.328C255.5 497.928 255.95 497.178 260.45 495.978C263.15 495.378 265.7 494.928 265.85 495.228C266.15 495.528 265.4 500.028 264.05 505.428C261.35 517.428 262.25 531.378 266.15 536.778C272.9 545.928 290.75 548.928 302.45 543.078C313.85 537.228 323.9 521.328 326.15 505.578C327.35 497.628 327.5 497.478 334.1 495.528C337.7 494.478 340.85 493.728 341 493.878C341.15 494.028 338.75 505.878 335.75 519.978L330.05 545.928H341.75C351.5 545.928 353.45 545.478 354.2 543.228C354.5 541.878 356.3 533.928 357.95 525.678C359.75 517.428 361.4 509.328 361.85 507.678C362.15 506.028 364.4 503.478 366.95 501.978C377.45 495.828 382.25 501.078 379.25 515.328C376.55 528.978 377.15 534.528 381.5 539.778C389.3 549.078 403.85 549.228 413.9 540.228C419.75 534.978 427.1 522.678 427.1 518.178C427.1 514.128 421.55 515.628 419.6 520.278C416.9 527.028 411.65 531.228 406.7 530.628C401.3 530.028 400.55 526.428 403.1 514.278C406.4 498.678 402.35 489.828 390.5 486.828L383.45 485.028L398.15 474.528L412.85 464.178L405.65 463.728C398.75 463.278 398 463.728 383.45 474.978C375.35 481.428 368 486.828 367.25 487.128C366.65 487.278 368.6 475.578 371.9 460.878C375.05 446.178 377.6 433.578 377.6 432.828C377.6 431.328 356.45 432.978 354.8 434.628C354.05 435.528 343.1 482.478 343.1 485.178C343.1 485.928 333.8 488.928 331.1 488.928C329.15 488.928 328.25 487.128 327.5 481.428C325.55 467.028 314.9 459.978 299.45 463.278C289.55 465.378 281.75 470.628 276.05 478.728C272 484.728 265.1 488.928 259.25 488.928C256.85 488.928 256.1 487.578 255.2 482.178C252.95 466.878 242.3 459.828 226.85 463.278C216.5 465.678 207.8 471.978 201.5 481.878C195.8 490.728 190.1 507.528 190.1 515.328C190.1 519.228 189.05 521.178 185.15 524.028C177.8 529.728 170.15 532.428 161.75 532.428C145.7 532.428 141.2 526.128 141.5 503.928C142.1 461.628 165.35 420.378 181.85 432.528C186.05 435.528 185.75 445.428 181.4 451.278C179.6 453.828 178.1 456.078 178.1 456.528C178.1 456.828 180.2 457.878 182.6 458.778C191.6 461.778 197.75 456.528 197.9 445.278C198.05 431.178 190.25 424.278 173 423.378C166.4 423.078 160.25 423.678 156.95 424.878ZM241.25 476.328C242.3 479.478 242.15 480.978 240.2 483.228C237.2 486.378 236.75 495.228 239.3 496.128C241.85 496.878 241.55 500.778 238.1 511.578C233.3 527.478 223.55 535.878 217.25 529.578C211.85 524.178 213.95 505.278 221.75 487.578C227.9 473.778 237.95 467.928 241.25 476.328ZM313.7 477.228C314.75 480.228 314.45 481.728 312.65 483.678C309.8 486.528 309.2 494.178 311.75 495.828C316.55 498.678 307.4 524.178 299.45 529.878C293.9 533.928 288.05 531.378 286.7 524.328C285.5 517.728 288.2 502.128 292.4 491.028C298.55 474.978 310.25 467.328 313.7 477.228Z" fill="#E07204"/>
<path d="M85.85 432.378C77 439.878 82.55 454.428 94.25 454.428C101.75 454.428 108.35 447.228 107 440.328C105.05 430.128 93.5 425.778 85.85 432.378Z" fill="#E07204"/>
</svg>
