<svg width="750" height="750" viewBox="0 0 750 750" fill="none" xmlns="http://www.w3.org/2000/svg">
<path d="M201.9 102.179C180.6 106.979 159 120.929 146.85 138.029C131.1 160.229 124.5 182.879 124.5 215.429C124.5 239.579 127.35 254.729 135.45 273.929C144.15 294.629 164.25 319.829 186.15 337.229C195.6 344.579 195.6 344.729 194.7 350.879C192.6 365.579 187.5 387.329 180.45 412.379C176.4 427.229 173.1 439.529 173.4 439.679C173.7 439.979 186.75 437.579 202.35 434.279C247.2 425.279 264.9 423.479 299.85 424.379C316.35 424.829 336.9 426.329 345.6 427.679C365.1 430.679 402.15 440.129 418.8 446.129C425.55 448.679 431.1 450.479 431.1 450.029C431.1 449.729 425.25 446.429 418.05 442.829C352.2 409.829 281.7 398.129 215.7 409.529C202.8 411.629 203.4 412.829 206.85 394.979C208.05 388.529 209.1 382.979 209.1 382.679C209.1 380.729 255.15 374.729 279.9 373.529C331.35 370.979 388.2 385.229 433.2 412.079C439.65 415.829 440.25 415.979 436.5 412.829C422.1 400.829 384.15 381.629 357.45 373.229C326.55 363.329 315.75 361.829 272.85 361.829C251.4 361.679 228.75 362.129 222.45 362.729L211.05 363.779L210.15 343.679C208.65 312.779 201.9 274.679 194.85 256.679L192.6 250.679L193.35 257.579C196.8 286.079 198 318.929 195.75 318.929C191.55 318.929 169.8 291.179 162.3 276.179C137.1 226.529 151.8 156.179 191.25 136.829C203.25 131.129 221.7 126.779 234.6 126.779C255.9 126.929 288.15 137.879 307.5 151.829C318.15 159.479 318.6 159.629 316.05 155.279C311.85 147.929 295.2 132.029 284.25 124.829C253.05 104.429 225.6 96.7786 201.9 102.179Z" fill="#331A01"/>
<path d="M473.85 135.178C443.4 140.128 421.35 148.379 371.1 173.428C313.65 202.228 294.45 208.529 274.35 205.078C257.25 202.228 243.3 194.578 226.05 178.978C211.65 165.928 211.8 165.928 214.35 173.279C222.3 195.928 237.45 214.229 255.9 223.378C286.5 238.678 317.55 232.979 393.15 198.029C427.2 182.279 442.8 176.279 462.75 171.328C522.45 156.629 569.1 169.529 586.2 205.678C600 234.928 599.55 278.879 585.15 306.178C579.45 316.979 562.5 335.128 551.1 342.928C536.4 352.978 514.35 362.278 497.1 366.028L493.35 366.778V347.728C493.35 330.628 493.05 327.928 489.75 321.928C485.25 313.229 479.85 307.379 472.35 303.479C466.8 300.479 464.25 300.178 439.35 300.178C417.6 300.329 407.4 301.079 386.7 304.379C372.6 306.479 353.55 309.028 344.25 309.778C305.25 313.229 266.55 304.229 233.7 283.829L224.85 278.279L230.85 283.678C249.3 300.329 274.35 313.678 298.2 319.678C319.65 325.078 342.6 326.578 373.05 324.628C387.3 323.729 413.1 322.828 430.65 322.828C461.85 322.678 462.45 322.678 466.05 326.128C472.35 332.128 475.65 342.328 477.75 361.678C479.7 381.778 478.8 412.528 475.35 442.229C474.15 452.279 473.25 461.279 473.25 462.179C473.4 464.729 480.3 436.229 484.35 415.679C486.6 404.879 488.55 394.679 489 392.879C489.45 390.328 490.95 389.578 497.4 388.679C549.45 381.929 593.7 353.278 613.35 313.678C617.1 306.178 621.15 296.129 622.35 291.178C630.45 259.229 627.6 219.178 615 192.478C602.1 164.428 580.5 146.728 548.1 137.428C533.25 133.078 494.1 131.878 473.85 135.178Z" fill="#331A01"/>
<path d="M280.95 524.878C256.8 533.878 241.05 562.678 238.05 603.028C237.6 609.628 236.7 615.478 236.1 615.928C235.5 616.378 233.85 618.928 232.5 621.478C229.35 627.778 223.95 631.228 218.55 630.628C215.1 630.328 214.2 629.428 213.9 625.378C213.45 621.628 221.85 577.378 225 565.978C225.75 563.728 224.55 563.428 213.75 563.428C207 563.428 201.6 563.878 201.6 564.478C201.6 564.928 198.9 578.128 195.6 593.578C188.85 625.228 188.4 630.928 192.3 638.428C199.2 652.378 223.2 648.028 234.75 630.778L238.8 624.478L241.35 630.328C246.6 642.928 255.45 647.878 272.85 648.028C283.2 648.178 286.2 647.578 294.6 643.528C300 640.978 306.6 636.778 309.15 634.378L313.95 629.728L316.95 634.828C321.45 642.478 328.2 645.928 338.7 645.928C358.5 645.928 372.6 631.678 377.7 606.328C379.5 597.928 379.95 597.178 384.45 595.978C387.15 595.378 389.7 594.928 389.85 595.228C390.15 595.528 389.4 600.028 388.05 605.428C385.35 617.428 386.25 631.378 390.15 636.778C396.9 645.928 414.75 648.928 426.45 643.078C437.85 637.228 447.9 621.328 450.15 605.578C451.35 597.628 451.5 597.478 458.1 595.528C461.7 594.478 464.85 593.728 465 593.878C465.15 594.028 462.75 605.878 459.75 619.978L454.05 645.928H465.75C475.5 645.928 477.45 645.478 478.2 643.228C478.5 641.878 480.3 633.928 481.95 625.678C483.75 617.428 485.4 609.328 485.85 607.678C486.15 606.028 488.4 603.478 490.95 601.978C501.45 595.828 506.25 601.078 503.25 615.328C500.55 628.978 501.15 634.528 505.5 639.778C513.3 649.078 527.85 649.228 537.9 640.228C543.75 634.978 551.1 622.678 551.1 618.178C551.1 614.128 545.55 615.628 543.6 620.278C540.9 627.028 535.65 631.228 530.7 630.628C525.3 630.028 524.55 626.428 527.1 614.278C530.4 598.678 526.35 589.828 514.5 586.828L507.45 585.028L522.15 574.528L536.85 564.178L529.65 563.728C522.75 563.278 522 563.728 507.45 574.978C499.35 581.428 492 586.828 491.25 587.128C490.65 587.278 492.6 575.578 495.9 560.878C499.05 546.178 501.6 533.578 501.6 532.828C501.6 531.328 480.45 532.978 478.8 534.628C478.05 535.528 467.1 582.478 467.1 585.178C467.1 585.928 457.8 588.928 455.1 588.928C453.15 588.928 452.25 587.128 451.5 581.428C449.55 567.028 438.9 559.978 423.45 563.278C413.55 565.378 405.75 570.628 400.05 578.728C396 584.728 389.1 588.928 383.25 588.928C380.85 588.928 380.1 587.578 379.2 582.178C376.95 566.878 366.3 559.828 350.85 563.278C340.5 565.678 331.8 571.978 325.5 581.878C319.8 590.728 314.1 607.528 314.1 615.328C314.1 619.228 313.05 621.178 309.15 624.028C301.8 629.728 294.15 632.428 285.75 632.428C269.7 632.428 265.2 626.128 265.5 603.928C266.1 561.628 289.35 520.378 305.85 532.528C310.05 535.528 309.75 545.428 305.4 551.278C303.6 553.828 302.1 556.078 302.1 556.528C302.1 556.828 304.2 557.878 306.6 558.778C315.6 561.778 321.75 556.528 321.9 545.278C322.05 531.178 314.25 524.278 297 523.378C290.4 523.078 284.25 523.678 280.95 524.878ZM365.25 576.328C366.3 579.478 366.15 580.978 364.2 583.228C361.2 586.378 360.75 595.228 363.3 596.128C365.85 596.878 365.55 600.778 362.1 611.578C357.3 627.478 347.55 635.878 341.25 629.578C335.85 624.178 337.95 605.278 345.75 587.578C351.9 573.778 361.95 567.928 365.25 576.328ZM437.7 577.228C438.75 580.228 438.45 581.728 436.65 583.678C433.8 586.528 433.2 594.178 435.75 595.828C440.55 598.678 431.4 624.178 423.45 629.878C417.9 633.928 412.05 631.378 410.7 624.328C409.5 617.728 412.2 602.128 416.4 591.028C422.55 574.978 434.25 567.328 437.7 577.228Z" fill="#E89543"/>
<path d="M209.85 532.378C201 539.878 206.55 554.428 218.25 554.428C225.75 554.428 232.35 547.228 231 540.328C229.05 530.128 217.5 525.778 209.85 532.378Z" fill="#E89543"/>
</svg>
