<svg width="100" height="100" viewBox="0 0 100 100" fill="none" xmlns="http://www.w3.org/2000/svg">
<g clip-path="url(#clip0_3_139)">
<path d="M34.7481 0.212784C26.0739 1.30741 17.8686 5.35363 11.6364 11.5891C-0.16363 23.3759 -3.32854 41.2614 3.7046 56.1757C9.50694 68.5099 21.1116 77.0323 34.416 78.7916C44.3014 80.0816 54.4018 77.5405 62.4899 71.7351C63.4472 71.051 64.3068 70.4841 64.385 70.4841C64.4631 70.4841 71.0078 76.9541 78.9006 84.8316C94.0414 99.9805 94.0609 99.9805 95.7997 100C96.6593 100 98.3589 99.2963 98.8669 98.7099C99.4334 98.0649 100 96.6184 100 95.7974C100 94.0577 99.9805 94.0382 84.8397 78.8893C76.9665 70.9923 70.4999 64.4636 70.4999 64.3854C70.4999 64.3073 71.0664 63.4472 71.7698 62.4503C76.6148 55.5893 79.0764 47.9465 79.0959 39.6585C79.0959 28.9468 74.9933 19.0365 67.4327 11.5109C61.4545 5.56865 54.1088 1.81563 45.6885 0.408249C43.0316 -0.0413284 37.5223 -0.139061 34.7481 0.212784ZM44.1256 8.61797C53.0343 10.0644 60.634 14.873 65.4595 22.1445C69.0542 27.559 70.7148 32.9735 70.7343 39.4044C70.7343 42.5124 70.5194 44.3889 69.8161 47.2232C67.0615 58.2282 58.2505 67.0438 47.2515 69.7999C44.4187 70.5036 42.5432 70.7187 39.4369 70.7187C33.0093 70.6991 27.5977 69.0376 22.1861 65.441C13.5705 59.7137 8.37382 49.9989 8.37382 39.5413C8.37382 34.3027 9.44833 29.8851 11.8904 25.1547C15.8368 17.5118 22.8699 11.8237 31.3292 9.3803C34.9044 8.36386 40.4332 8.03156 44.1256 8.61797Z" fill="#331A01"/>
</g>
<defs>
<clipPath id="clip0_3_139">
<rect width="100" height="100" fill="white"/>
</clipPath>
</defs>
</svg>
