<svg id="visual" viewBox="0 0 900 600" width="900" height="600" xmlns="http://www.w3.org/2000/svg" xmlns:xlink="http://www.w3.org/1999/xlink" version="1.1"><path d="M0 73L30 72C60 71 120 69 180 66C240 63 300 59 360 52C420 45 480 35 540 34C600 33 660 41 720 47C780 53 840 57 870 59L900 61L900 0L870 0C840 0 780 0 720 0C660 0 600 0 540 0C480 0 420 0 360 0C300 0 240 0 180 0C120 0 60 0 30 0L0 0Z" fill="#ffcdb3"></path><path d="M0 109L30 110C60 111 120 113 180 107C240 101 300 87 360 80C420 73 480 73 540 77C600 81 660 89 720 97C780 105 840 113 870 117L900 121L900 59L870 57C840 55 780 51 720 45C660 39 600 31 540 32C480 33 420 43 360 50C300 57 240 61 180 64C120 67 60 69 30 70L0 71Z" fill="#f7bb9c"></path><path d="M0 151L30 148C60 145 120 139 180 130C240 121 300 109 360 108C420 107 480 117 540 126C600 135 660 143 720 146C780 149 840 147 870 146L900 145L900 119L870 115C840 111 780 103 720 95C660 87 600 79 540 75C480 71 420 71 360 78C300 85 240 99 180 105C120 111 60 109 30 108L0 107Z" fill="#efaa86"></path><path d="M0 199L30 204C60 209 120 219 180 221C240 223 300 217 360 207C420 197 480 183 540 189C600 195 660 221 720 227C780 233 840 219 870 212L900 205L900 143L870 144C840 145 780 147 720 144C660 141 600 133 540 124C480 115 420 105 360 106C300 107 240 119 180 128C120 137 60 143 30 146L0 149Z" fill="#e69870"></path><path d="M0 265L30 270C60 275 120 285 180 292C240 299 300 303 360 297C420 291 480 275 540 268C600 261 660 263 720 268C780 273 840 281 870 285L900 289L900 203L870 210C840 217 780 231 720 225C660 219 600 193 540 187C480 181 420 195 360 205C300 215 240 221 180 219C120 217 60 207 30 202L0 197Z" fill="#dd875b"></path><path d="M0 331L30 334C60 337 120 343 180 345C240 347 300 345 360 336C420 327 480 311 540 310C600 309 660 323 720 333C780 343 840 349 870 352L900 355L900 287L870 283C840 279 780 271 720 266C660 261 600 259 540 266C480 273 420 289 360 295C300 301 240 297 180 290C120 283 60 273 30 268L0 263Z" fill="#d37546"></path><path d="M0 403L30 416C60 429 120 455 180 471C240 487 300 493 360 477C420 461 480 423 540 418C600 413 660 441 720 460C780 479 840 489 870 494L900 499L900 353L870 350C840 347 780 341 720 331C660 321 600 307 540 308C480 309 420 325 360 334C300 343 240 345 180 343C120 341 60 335 30 332L0 329Z" fill="#c96431"></path><path d="M0 577L30 576C60 575 120 573 180 574C240 575 300 579 360 581C420 583 480 583 540 577C600 571 660 559 720 558C780 557 840 567 870 572L900 577L900 497L870 492C840 487 780 477 720 458C660 439 600 411 540 416C480 421 420 459 360 475C300 491 240 485 180 469C120 453 60 427 30 414L0 401Z" fill="#be511b"></path><path d="M0 601L30 601C60 601 120 601 180 601C240 601 300 601 360 601C420 601 480 601 540 601C600 601 660 601 720 601C780 601 840 601 870 601L900 601L900 575L870 570C840 565 780 555 720 556C660 557 600 569 540 575C480 581 420 581 360 579C300 577 240 573 180 572C120 571 60 573 30 574L0 575Z" fill="#b33e00"></path></svg>