<svg width="400" height="400" viewBox="0 0 400 400" fill="none" xmlns="http://www.w3.org/2000/svg">
<path d="M370.481 192.081L336.25 157.863C347.988 157.006 358.75 142.581 366.713 135.244C367.879 134.066 368.533 132.476 368.533 130.819C368.533 129.161 367.879 127.571 366.713 126.394L338.95 98.6313C335.743 95.4675 331.854 93.0802 327.581 91.6523C323.308 90.2244 318.765 89.7939 314.3 90.3938C314.911 85.9196 314.482 81.3647 313.047 77.0831C311.612 72.8015 309.209 68.9084 306.025 65.7063L278.275 37.9563C277.098 36.7899 275.507 36.1355 273.85 36.1355C272.193 36.1355 270.602 36.7899 269.425 37.9563C262.288 45.7063 248.475 56.0813 246.925 67.4188L246.113 67.7L217.044 38.5813C213.366 34.912 208.383 32.8514 203.188 32.8514C197.992 32.8514 193.009 34.912 189.331 38.5813L172.825 55.0813C169.175 58.7696 167.128 63.7488 167.128 68.9375C167.128 74.1263 169.175 79.1055 172.825 82.7938L181.981 91.95C172.271 100.066 163.548 109.296 155.994 119.45C155.289 120.389 154.863 121.507 154.765 122.677C154.666 123.846 154.899 125.02 155.436 126.063C155.973 127.107 156.794 127.978 157.803 128.577C158.813 129.176 159.97 129.478 161.144 129.45L180.919 128.981L180.681 149.069C180.667 150.262 180.994 151.434 181.624 152.446C182.255 153.459 183.162 154.27 184.238 154.784C185.315 155.298 186.516 155.493 187.699 155.346C188.883 155.2 190 154.717 190.919 153.956C191.069 153.838 204.781 142.513 220.919 130.831C225.644 135.563 268.794 178.681 272.1 182.081C270.738 183.956 269.4 185.775 268.069 187.563H100C96.6848 187.563 93.5054 188.88 91.1612 191.224C88.817 193.568 87.5 196.747 87.5 200.063V349.688C87.5 359.716 91.4838 369.334 98.5751 376.425C105.666 383.516 115.284 387.5 125.313 387.5H274.688C284.716 387.5 294.334 383.516 301.425 376.425C308.516 369.334 312.5 359.716 312.5 349.688V222.4L326.3 236.2C328.121 238.022 330.284 239.468 332.664 240.454C335.044 241.441 337.595 241.948 340.172 241.948C342.748 241.948 345.3 241.441 347.68 240.454C350.06 239.468 352.222 238.022 354.044 236.2L370.481 219.763C374.141 216.086 376.196 211.109 376.196 205.922C376.196 200.734 374.141 195.758 370.481 192.081ZM323.919 166.569C320.622 183.757 312.862 199.776 301.419 213.019C296.799 218.592 291.746 223.792 286.306 228.569C286.038 223.413 287.95 213.738 284.813 211.3C284.226 210.701 283.524 210.227 282.75 209.904C281.976 209.582 281.145 209.419 280.306 209.425L266.875 209.55C281.544 190.413 298.125 169.55 307.763 146.988C309.294 148.494 322.425 161.638 324.288 163.506C324.231 164.319 324.075 165.538 323.919 166.569ZM278.294 170.575L283.563 165.294C282.231 167.363 280.825 169.456 279.356 171.638L278.294 170.575ZM236.113 120.238C239.713 117.894 243.306 115.613 246.981 113.494L234.125 126.35L231.25 123.494C232.975 122.331 234.594 121.25 236.144 120.238H236.113ZM330.144 107.5L353.463 130.825L343.375 140.85C340.138 143.954 335.826 145.688 331.341 145.688C326.855 145.688 322.544 143.954 319.306 140.85C319.181 140.681 296.019 117.563 296.019 117.563L306.019 107.488C309.227 104.303 313.564 102.517 318.084 102.519C322.604 102.522 326.939 104.312 330.144 107.5ZM263.894 61.3063L273.894 51.2438L297.219 74.5625C300.409 77.7611 302.201 82.0946 302.201 86.6125C302.201 91.1304 300.409 95.4639 297.219 98.6625L287.219 108.731L263.881 85.4C260.686 82.2026 258.889 77.8681 258.886 73.3477C258.882 68.8272 260.672 64.4899 263.863 61.2875L263.894 61.3063ZM181.725 63.9125L198.2 47.4375C199.531 46.12 201.327 45.3809 203.2 45.3809C205.073 45.3809 206.869 46.12 208.2 47.4375L228.538 67.8188C215.453 71.04 203.068 76.6278 191.994 84.3063L181.694 74.0063C181.03 73.3423 180.503 72.5541 180.144 71.6865C179.784 70.8189 179.599 69.8891 179.599 68.95C179.599 68.011 179.784 67.0811 180.144 66.2136C180.503 65.346 181.03 64.5577 181.694 63.8938L181.725 63.9125ZM191.644 118.125C191.046 117.535 190.336 117.072 189.555 116.762C188.774 116.453 187.939 116.304 187.1 116.325L174.394 116.631C191.638 97.3063 213.625 81.7938 239.425 78.65L255.894 95.1313C234.119 104.175 210.994 122.494 193.344 135.994C193.013 130.388 194.831 120.5 191.644 118.125ZM269.494 108.75L295.975 135.231L269.5 161.719L242.969 135.188L269.494 108.75ZM258.5 200C255.331 204.056 252.138 208.056 248.938 211.95C248.196 212.873 247.729 213.986 247.591 215.161C247.454 216.337 247.65 217.528 248.159 218.597C248.667 219.666 249.467 220.57 250.466 221.205C251.465 221.84 252.623 222.181 253.806 222.188L273.969 222L273.5 241.788C273.488 242.634 273.647 243.474 273.969 244.257C274.291 245.039 274.769 245.748 275.373 246.341C275.978 246.934 276.696 247.397 277.485 247.704C278.274 248.011 279.117 248.154 279.963 248.125C287.55 246.031 293.869 237.781 300 232.919V265.938H221.875V200H258.5ZM100 200H178.125V265.938H100V200ZM178.125 294.063H100V278.438H178.125V294.063ZM125.313 375C118.599 375 112.161 372.333 107.414 367.586C102.667 362.839 100 356.401 100 349.688V306.563H178.125V375H125.313ZM190.625 200H209.375V375H190.625V200ZM274.688 375H221.875V306.475L237.588 306.25C238.408 306.239 239.219 306.066 239.973 305.741C240.727 305.416 241.409 304.946 241.982 304.358C242.554 303.769 243.004 303.074 243.308 302.311C243.611 301.548 243.762 300.733 243.75 299.913C243.687 298.268 242.994 296.71 241.814 295.563C240.635 294.416 239.058 293.767 237.413 293.75L221.875 293.975V278.438H300V293.956L287.606 293.75C285.949 293.722 284.348 294.353 283.156 295.505C281.964 296.658 281.278 298.236 281.25 299.894C281.222 301.551 281.853 303.152 283.005 304.344C284.158 305.536 285.736 306.222 287.394 306.25L300 306.463V349.688C300 356.401 297.333 362.839 292.586 367.586C287.839 372.333 281.401 375 274.688 375ZM361.644 210.95C336.425 235.813 343.794 235.531 318.656 210.875C326.323 199.823 331.909 187.464 335.138 174.406L361.669 200.938C362.327 201.595 362.849 202.376 363.205 203.236C363.56 204.096 363.742 205.018 363.74 205.949C363.737 206.88 363.551 207.801 363.191 208.659C362.832 209.517 362.306 210.296 361.644 210.95ZM26.7 83.35C29.4541 85.3749 32.7817 86.4695 36.2 86.475C38.8324 86.4667 41.4234 85.8189 43.75 84.5875L48.2938 82.1938C48.8221 81.9167 49.4097 81.772 50.0063 81.772C50.6028 81.772 51.1905 81.9167 51.7188 82.1938L56.25 84.5875C58.9236 85.9904 61.9362 86.6179 64.9476 86.3992C67.959 86.1805 70.8492 85.1242 73.292 83.3496C75.7348 81.575 77.6328 79.1529 78.7718 76.3566C79.9107 73.5604 80.2452 70.5014 79.7375 67.525L78.8688 62.4688C78.7663 61.8801 78.809 61.2753 78.993 60.7068C79.1771 60.1383 79.497 59.6232 79.925 59.2063L83.6 55.6188C85.7615 53.5104 87.2903 50.8395 88.0135 47.9079C88.7367 44.9764 88.6255 41.9009 87.6925 39.0292C86.7596 36.1575 85.042 33.6039 82.7339 31.6571C80.4258 29.7103 77.6192 28.4479 74.6313 28.0125L69.55 27.275C68.9599 27.1894 68.3994 26.9614 67.917 26.6108C67.4347 26.2602 67.0449 25.7974 66.7813 25.2625L64.5125 20.6625C63.1757 17.9541 61.1078 15.6737 58.5426 14.0792C55.9774 12.4847 53.0173 11.6396 49.9969 11.6396C46.9765 11.6396 44.0164 12.4847 41.4512 14.0792C38.886 15.6737 36.8181 17.9541 35.4813 20.6625L33.2188 25.2625C32.9531 25.7984 32.5612 26.2616 32.0766 26.6122C31.5921 26.9628 31.0296 27.1903 30.4375 27.275L25.3688 28.0125C22.3791 28.4461 19.5703 29.7076 17.2603 31.6544C14.9502 33.6012 13.231 36.1556 12.2972 39.0287C11.3633 41.9017 11.2521 44.9787 11.9761 47.9117C12.7 50.8447 14.2303 53.5165 16.3938 55.625L20.0625 59.2C20.4926 59.617 20.8143 60.1328 20.9995 60.7025C21.1846 61.2723 21.2278 61.8786 21.125 62.4688L20.2563 67.525C19.7364 70.5017 20.065 73.5647 21.2046 76.3633C22.3442 79.1619 24.2486 81.5832 26.7 83.35ZM24.2 42.8938C24.4034 42.2354 24.7921 41.6494 25.3197 41.2061C25.8473 40.7627 26.4914 40.4807 27.175 40.3938L32.25 39.6563C34.8469 39.2776 37.3129 38.2738 39.4359 36.7311C41.5589 35.1884 43.2753 33.153 44.4375 30.8L46.7063 26.2C47.0109 25.5833 47.4819 25.064 48.0662 24.7009C48.6505 24.3378 49.3246 24.1454 50.0125 24.1454C50.7004 24.1454 51.3746 24.3378 51.9588 24.7009C52.5431 25.064 53.0142 25.5833 53.3188 26.2L55.5875 30.8C56.7497 33.153 58.4661 35.1884 60.5891 36.7311C62.7121 38.2738 65.1782 39.2776 67.775 39.6563L72.85 40.3938C73.5242 40.496 74.1567 40.7835 74.677 41.2241C75.1973 41.6647 75.5851 42.2412 75.797 42.8893C76.0089 43.5373 76.0367 44.2315 75.8772 44.8945C75.7177 45.5574 75.3773 46.163 74.8938 46.6438L71.2188 50.2313C69.3406 52.0634 67.9356 54.3244 67.1245 56.8197C66.3134 59.315 66.1206 61.97 66.5625 64.5563L67.4313 69.6125C67.5478 70.2899 67.4724 70.9864 67.2136 71.6231C66.9548 72.2599 66.5228 72.8114 65.9667 73.2154C65.4106 73.6193 64.7525 73.8595 64.0669 73.9087C63.3813 73.9579 62.6956 73.8141 62.0875 73.4938L57.55 71.1125C55.2267 69.8902 52.6409 69.2514 50.0156 69.2514C47.3904 69.2514 44.8046 69.8902 42.4813 71.1125L37.9375 73.5C37.3294 73.8204 36.6437 73.9641 35.9582 73.9149C35.2726 73.8657 34.6145 73.6255 34.0584 73.2216C33.5022 72.8177 33.0703 72.2661 32.8114 71.6294C32.5526 70.9927 32.4772 70.2962 32.5938 69.6188L33.4625 64.5625C33.9 61.9766 33.7031 59.3232 32.8888 56.8302C32.0745 54.3371 30.6671 52.0791 28.7875 50.25L25.1188 46.675C24.6153 46.2018 24.2595 45.593 24.0943 44.922C23.929 44.2511 23.9614 43.5467 24.1875 42.8938H24.2ZM73.0375 115.1L69.0188 114.519C68.7585 114.482 68.5113 114.382 68.2988 114.227C68.0863 114.072 67.915 113.868 67.8 113.631L66.0063 109.994C64.8475 107.627 63.0461 105.634 60.808 104.242C58.5699 102.851 55.9854 102.117 53.35 102.125C50.7123 102.113 48.1248 102.846 45.8849 104.239C43.645 105.632 41.8435 107.629 40.6875 110L38.8875 113.644C38.7675 113.882 38.5907 114.087 38.3727 114.241C38.1547 114.394 37.9022 114.492 37.6375 114.525L33.6188 115.106C31.0132 115.487 28.566 116.589 26.5535 118.288C24.541 119.986 23.0434 122.213 22.2296 124.717C21.4158 127.222 21.3183 129.904 21.9481 132.461C22.5779 135.018 23.9099 137.348 25.7938 139.188L28.7063 142.019C28.8944 142.203 29.0348 142.43 29.1154 142.68C29.196 142.931 29.2143 143.197 29.1688 143.456L28.4813 147.456C28.0371 150.052 28.3277 152.72 29.3203 155.16C30.313 157.599 31.9681 159.712 34.0986 161.26C36.2292 162.808 38.7502 163.729 41.3768 163.92C44.0035 164.11 46.631 163.562 48.9625 162.338L52.5625 160.463C52.7925 160.337 53.0504 160.271 53.3125 160.271C53.5746 160.271 53.8326 160.337 54.0625 160.463L57.6563 162.338C59.9853 163.573 62.6154 164.128 65.2452 163.938C67.875 163.748 70.398 162.821 72.525 161.263C74.6663 159.723 76.3299 157.611 77.3249 155.169C78.3199 152.727 78.6059 150.054 78.15 147.456L77.4688 143.456C77.4223 143.198 77.4408 142.931 77.5226 142.682C77.6044 142.432 77.747 142.206 77.9375 142.025L80.8438 139.188C82.7276 137.348 84.0597 135.018 84.6895 132.461C85.3193 129.904 85.2218 127.222 84.408 124.717C83.5942 122.213 82.0965 119.986 80.084 118.288C78.0715 116.589 75.6244 115.487 73.0188 115.106L73.0375 115.1ZM72.1375 130.225L69.2313 133.063C67.5904 134.66 66.363 136.633 65.6552 138.81C64.9474 140.988 64.7805 143.306 65.1688 145.563L65.8563 149.563C65.9075 149.86 65.8742 150.167 65.7604 150.447C65.6465 150.727 65.4565 150.969 65.212 151.147C64.9674 151.324 64.678 151.43 64.3766 151.451C64.0751 151.473 63.7737 151.41 63.5063 151.269L59.9125 149.394C57.8875 148.334 55.6358 147.78 53.35 147.78C51.0643 147.78 48.8126 148.334 46.7875 149.394L43.1938 151.269C42.9312 151.423 42.628 151.494 42.3243 151.471C42.0206 151.449 41.731 151.335 41.4938 151.144C41.245 150.971 41.0529 150.729 40.9416 150.448C40.8304 150.166 40.805 149.858 40.8688 149.563L41.5625 145.556C41.9498 143.299 41.7823 140.982 41.0745 138.805C40.3668 136.627 39.14 134.654 37.5 133.056L34.5875 130.213C34.3722 130.002 34.2199 129.736 34.1479 129.444C34.0758 129.152 34.0869 128.846 34.1799 128.56C34.2729 128.274 34.444 128.019 34.674 127.825C34.904 127.632 35.1836 127.506 35.4813 127.463L39.5 126.875C41.7644 126.547 43.9149 125.673 45.766 124.328C47.6171 122.983 49.1132 121.208 50.125 119.156L51.925 115.513C52.059 115.243 52.2658 115.015 52.5219 114.856C52.7781 114.698 53.0736 114.613 53.375 114.613C53.6765 114.613 53.9719 114.698 54.2281 114.856C54.4843 115.015 54.691 115.243 54.825 115.513L56.625 119.156C57.6386 121.207 59.1351 122.981 60.9859 124.326C62.8367 125.67 64.9863 126.545 67.25 126.875L71.2688 127.463C71.567 127.505 71.8473 127.63 72.0781 127.823C72.3089 128.017 72.4809 128.271 72.5746 128.557C72.6682 128.844 72.6799 129.15 72.6082 129.443C72.5364 129.735 72.3842 130.002 72.1688 130.213L72.1375 130.225Z" fill="#331A01"/>
<path d="M112.675 85.3126L112.156 88.3313C111.771 90.5718 112.021 92.8753 112.877 94.9813C113.734 97.0872 115.162 98.9116 117.001 100.248C118.84 101.584 121.016 102.379 123.284 102.543C125.551 102.707 127.819 102.233 129.831 101.175L132.244 99.7501L134.956 101.175C136.968 102.233 139.235 102.708 141.502 102.544C143.768 102.381 145.944 101.586 147.783 100.251C149.621 98.9147 151.049 97.0909 151.905 94.9855C152.761 92.8802 153.01 90.5773 152.625 88.3376L152 85.5938L154.194 83.4626C155.82 81.8748 156.97 79.8639 157.514 77.6569C158.058 75.4499 157.974 73.1349 157.271 70.9733C156.568 68.8117 155.275 66.8897 153.537 65.4244C151.8 63.9592 149.687 63.009 147.438 62.6813L144.65 62.4188L143.3 59.6751C142.302 57.6316 140.749 55.9108 138.817 54.7102C136.886 53.5097 134.655 52.8779 132.381 52.8876C130.107 52.88 127.876 53.5132 125.945 54.7148C124.014 55.9163 122.461 57.6376 121.463 59.6813L120.35 62.2501L117.319 62.6876C115.07 63.0162 112.958 63.9671 111.221 65.4327C109.485 66.8984 108.192 68.8205 107.49 70.9819C106.788 73.1433 106.704 75.458 107.248 77.6645C107.792 79.871 108.942 81.8815 110.569 83.4688L112.675 85.3126ZM132.106 65.2001L122.15 74.6126C124.105 74.3302 125.962 73.5761 127.561 72.4153C129.16 71.2545 130.451 69.7219 131.325 67.9501L132.3 65.6001L133.463 67.9563C134.337 69.7259 135.628 71.2564 137.226 72.416C138.823 73.5755 140.678 74.3294 142.631 74.6126L145.481 74.5126L143.294 76.6501C141.879 78.027 140.821 79.7274 140.21 81.6046C139.599 83.4817 139.454 85.4793 139.788 87.4251L140.769 90.1063L138.063 88.6813C136.314 87.7637 134.369 87.2843 132.394 87.2843C130.419 87.2843 128.474 87.7637 126.725 88.6813L124.475 90.4501L125 87.4251C125.33 85.4794 125.184 83.4827 124.573 81.6061C123.962 79.7294 122.906 78.0288 121.494 76.6501L119.125 75.0563L132.106 65.2001ZM109.375 157.863L108.863 160.875C108.478 163.116 108.729 165.42 109.586 167.526C110.443 169.631 111.872 171.456 113.712 172.791C115.552 174.127 117.729 174.921 119.996 175.084C122.264 175.247 124.532 174.772 126.544 173.713L128.95 172.294L131.656 173.719C133.666 174.785 135.936 175.263 138.205 175.099C140.474 174.936 142.651 174.137 144.488 172.794C146.334 171.463 147.767 169.639 148.624 167.531C149.48 165.423 149.726 163.116 149.331 160.875L148.706 158.144L150.906 156C152.533 154.413 153.684 152.403 154.228 150.196C154.772 147.989 154.688 145.674 153.985 143.513C153.282 141.351 151.988 139.43 150.25 137.965C148.512 136.501 146.399 135.551 144.15 135.225L141.375 135L140.025 132.256C139.022 130.211 137.466 128.487 135.532 127.282C133.599 126.076 131.366 125.437 129.088 125.437C126.809 125.437 124.576 126.076 122.643 127.282C120.71 128.487 119.153 130.211 118.15 132.256L117.038 134.825L114.006 135.263C111.758 135.59 109.645 136.54 107.908 138.005C106.171 139.47 104.878 141.391 104.176 143.553C103.474 145.714 103.39 148.028 103.934 150.235C104.479 152.441 105.629 154.451 107.256 156.038L109.375 157.863ZM118.863 147.156C120.816 146.873 122.671 146.118 124.267 144.957C125.863 143.796 127.153 142.264 128.025 140.494L129.006 138.15L130.169 140.5C131.043 142.27 132.335 143.8 133.932 144.96C135.529 146.119 137.384 146.873 139.338 147.156L142.194 147.05L139.994 149.194C138.581 150.573 137.524 152.275 136.914 154.153C136.304 156.031 136.16 158.029 136.494 159.975L137.475 162.65L134.763 161.225C133.013 160.309 131.068 159.83 129.094 159.83C127.119 159.83 125.174 160.309 123.425 161.225L121.188 162.981L121.7 159.975C122.037 158.028 121.894 156.028 121.284 154.148C120.675 152.269 119.616 150.566 118.2 149.188L115.825 147.594L118.863 147.156ZM256.25 300C256.25 301.658 256.909 303.247 258.081 304.419C259.253 305.592 260.842 306.25 262.5 306.25C264.158 306.25 265.747 305.592 266.92 304.419C268.092 303.247 268.75 301.658 268.75 300C268.75 298.342 268.092 296.753 266.92 295.581C265.747 294.409 264.158 293.75 262.5 293.75C260.842 293.75 259.253 294.409 258.081 295.581C256.909 296.753 256.25 298.342 256.25 300Z" fill="#331A01"/>
</svg>
