<svg width="100" height="100" viewBox="0 0 100 100" fill="none" xmlns="http://www.w3.org/2000/svg">
<path d="M73.8086 47.9315C75.7952 47.9561 77.7667 47.5826 79.6066 46.833C81.4466 46.0834 83.1178 44.9729 84.5216 43.5669L98.5577 29.5308C99.4815 28.6016 100 27.3445 100 26.0342C100 24.7239 99.4815 23.4669 98.5577 22.5376C98.0967 22.0727 97.5481 21.7037 96.9437 21.4519C96.3393 21.2001 95.6911 21.0705 95.0363 21.0705C94.3816 21.0705 93.7333 21.2001 93.1289 21.4519C92.5245 21.7037 91.976 22.0727 91.5149 22.5376L77.33 36.5241C76.8689 36.989 76.3204 37.3579 75.716 37.6097C75.1116 37.8615 74.4633 37.9912 73.8086 37.9912C73.1538 37.9912 72.5056 37.8615 71.9012 37.6097C71.2968 37.3579 70.7482 36.989 70.2871 36.5241L87.8447 19.0162C88.3071 18.5537 88.6739 18.0047 88.9242 17.4005C89.1745 16.7963 89.3033 16.1487 89.3033 15.4947C89.3033 14.8407 89.1745 14.1932 88.9242 13.5889C88.6739 12.9847 88.3071 12.4357 87.8447 11.9733C87.3822 11.5109 86.8332 11.144 86.229 10.8938C85.6248 10.6435 84.9772 10.5147 84.3232 10.5147C83.6693 10.5147 83.0217 10.6435 82.4175 10.8938C81.8132 11.144 81.2643 11.5109 80.8018 11.9733L63.2939 29.5308C62.3701 28.6016 61.8516 27.3445 61.8516 26.0342C61.8516 24.7239 62.3701 23.4669 63.2939 22.5376L77.33 8.50148C77.7924 8.03904 78.1593 7.49004 78.4095 6.88583C78.6598 6.28162 78.7886 5.63404 78.7886 4.98005C78.7886 4.32606 78.6598 3.67847 78.4095 3.07427C78.1593 2.47006 77.7924 1.92106 77.33 1.45862C76.8675 0.996183 76.3186 0.629355 75.7143 0.379084C75.1101 0.128813 74.4626 -1.28917e-08 73.8086 0C73.1546 1.28917e-08 72.507 0.128813 71.9028 0.379084C71.2986 0.629355 70.7496 0.996183 70.2871 1.45862L56.251 15.4947C53.4646 18.2846 51.8995 22.0664 51.8995 26.0094C51.8995 29.9524 53.4646 33.7342 56.251 36.5241L49.8033 42.9222L8.78617 1.75621L8.29019 1.45862C8.03665 1.23742 7.75271 1.05369 7.44703 0.91305L6.55427 0.565867L5.9591 0.169087H5.61192H4.61997C4.32426 0.121803 4.02292 0.121803 3.72721 0.169087C3.42696 0.278371 3.14323 0.428581 2.88405 0.615464L2.09049 1.11144H1.74331L1.44573 1.60742C1.23581 1.86929 1.05301 2.15179 0.900153 2.45057C0.754898 2.75301 0.638649 3.06854 0.55297 3.39293C0.55297 3.39293 0.55297 3.74011 0.55297 3.9385C-0.650588 12.3275 0.11676 20.8815 2.79417 28.9223C5.47158 36.9632 9.98542 44.2697 15.9778 50.2626L29.0716 63.3068L2.23929 90.0894C1.77442 90.5505 1.40544 91.0991 1.15364 91.7035C0.901839 92.3079 0.7722 92.9561 0.7722 93.6109C0.7722 94.2656 0.901839 94.9139 1.15364 95.5183C1.40544 96.1227 1.77442 96.6712 2.23929 97.1323C2.70273 97.592 3.25235 97.9557 3.85663 98.2025C4.46092 98.4493 5.10798 98.5744 5.76071 98.5706C6.41345 98.5744 7.06051 98.4493 7.6648 98.2025C8.26908 97.9557 8.8187 97.592 9.28214 97.1323L39.3879 67.473L53.424 53.4369L63.3435 43.5173C66.1109 46.3146 69.8738 47.9018 73.8086 47.9315ZM35.8664 56.9583L22.8223 43.8645C15.6726 36.617 11.1958 27.1564 10.1253 17.0323L42.9093 49.7666L35.8664 56.9583ZM66.8153 59.7854C65.8814 58.8448 64.6121 58.3138 63.2866 58.3092C61.9612 58.3045 60.6882 58.8266 59.7477 59.7606C58.8071 60.6945 58.2761 61.9638 58.2715 63.2892C58.2668 64.6147 58.7889 65.8877 59.7229 66.8282L90.9693 98.0747C91.9167 98.9367 93.1608 99.3988 94.4411 99.3642C95.0939 99.368 95.7409 99.2429 96.3452 98.996C96.9495 98.7492 97.4991 98.3855 97.9626 97.9259C98.4274 97.4648 98.7964 96.9162 99.0482 96.3118C99.3 95.7075 99.4297 95.0592 99.4297 94.4044C99.4297 93.7497 99.3 93.1014 99.0482 92.497C98.7964 91.8926 98.4274 91.3441 97.9626 90.883L66.8153 59.7854Z" fill="#331A01"/>
</svg>
