<svg width="353" height="101" viewBox="0 0 353 101" fill="none" xmlns="http://www.w3.org/2000/svg">
<path d="M18.9622 1.11326C13.3615 2.75961 7.47908 7.50722 4.66114 12.6377C1.56141 18.3425 0.328562 23.0135 0.0467682 30.4412C-0.446371 43.2675 2.93515 52.6478 11.389 61.9899C12.7627 63.4831 14.7705 65.4357 15.8977 66.3546C17.7645 67.9244 17.9054 68.1158 17.9054 69.609C17.9054 72.404 15.1932 84.6176 12.4457 94.3809C12.2696 94.8786 13.2559 94.7637 18.6804 93.5385C29.776 91.0499 34.8483 90.3607 42.3863 90.3607C54.7148 90.3607 64.1196 92.2751 77.9627 97.597C79.6535 98.2479 74.4403 95.1849 70.9179 93.462C56.2294 86.264 39.674 83.6604 24.6685 86.1108C22.4846 86.4554 20.6177 86.6851 20.5473 86.6086C20.4768 86.532 20.6882 84.7708 21.0052 82.665C21.604 79.0277 21.6744 78.8745 22.6607 78.5682C25.5139 77.7259 34.637 76.6539 40.2728 76.4625C49.572 76.1562 56.4055 77.1899 64.8593 80.2146C68.9101 81.6312 76.3776 85.3451 79.9001 87.6806C82.3658 89.2887 81.0977 88.14 77.7866 85.7662C66.9023 77.9174 54.5739 73.5143 41.1534 72.7103C37.4197 72.4806 26.6763 72.9783 23.5765 73.5143L22.238 73.7441L21.9915 68.8433C21.6392 62.3728 20.8995 56.0937 19.8076 50.8483C18.927 46.4453 17.0601 40.1662 17.3771 42.6549C18.2929 49.738 18.8917 61.4156 18.3281 61.4156C17.9054 61.4156 15.2989 58.3143 13.0797 55.1748C10.7902 51.9586 8.50058 47.0196 7.69042 43.5738C4.4498 29.9435 8.39491 15.6624 16.7783 10.7616C19.3849 9.23014 24.8094 7.81351 28.1205 7.81351C34.4256 7.81351 44.3236 11.9485 49.0437 16.5813C50.3822 17.9213 49.8538 16.811 47.6699 13.8246C44.4997 9.49815 37.2788 4.21452 31.2907 1.879C27.9443 0.57724 22.0267 0.194366 18.9622 1.11326Z" fill="#331A01"/>
<path d="M90.6788 9.95774C82.4716 11.1446 77.1175 13.2122 64.5777 19.989C50.0301 27.8379 45.5214 29.6756 40.6252 29.7139C35.5177 29.7139 30.7977 27.2253 25.0209 21.4439C23.8585 20.257 22.837 19.2998 22.6961 19.2998C22.5904 19.2998 22.9075 20.4484 23.4006 21.8651C25.2322 27.2253 29.0012 32.0494 33.2634 34.4998C41.0127 38.9794 49.3961 37.3331 68.6989 27.6081C79.5128 22.1331 84.6555 20.2187 91.3481 19.1084C104.17 17.0026 113.997 20.793 117.837 29.2928C119.739 33.4278 120.549 37.8308 120.549 43.8036C120.549 49.4701 119.88 53.0308 118.083 56.9361C114.49 64.6318 106.917 70.7578 97.4419 73.6293C95.9977 74.0888 94.7296 74.4334 94.624 74.4334C94.5183 74.4334 94.4478 72.251 94.4831 69.5326C94.5183 64.9381 94.4478 64.5553 93.532 62.3346C92.3344 59.5014 90.9254 57.9316 88.5302 56.7447C86.9099 55.9407 86.3463 55.8641 80.6047 55.9024C75.4268 55.9407 73.2076 56.1321 66.8673 57.2424C59.9986 58.391 58.6248 58.5059 51.897 58.5059C45.0635 58.5059 44.2533 58.4293 41.1536 57.5104C36.2927 56.0938 32.4884 54.4092 29.1421 52.1885C25.6549 49.853 26.2538 50.8867 30.375 54.2177C33.1929 56.515 38.0891 59.2716 41.3297 60.4585C48.0223 62.8706 56.2296 63.4449 70.0375 62.4112C85.677 61.2626 87.2621 61.5689 89.0233 65.9719C90.0096 68.4989 90.4675 73.1699 90.4675 80.9422C90.4675 86.6853 90.2209 90.3608 89.2347 100.086C88.9881 102.574 90.5732 95.7976 92.0526 87.8339C92.7571 84.1583 93.4616 81.0188 93.5672 80.9039C93.7081 80.789 95.2228 80.4827 96.9135 80.2147C102.091 79.449 108.467 76.922 112.835 73.9739C122.486 67.312 127.805 57.5487 128.404 45.1437C128.756 37.7542 127.699 31.3986 125.199 25.6172C122.698 19.8741 119.07 15.8923 113.539 12.8676C107.763 9.72802 99.3792 8.65598 90.6788 9.95774Z" fill="#331A01"/>
<path d="M198.254 16.177C184.465 21.7627 175.472 39.6367 173.759 64.679C173.502 68.7752 172.988 72.4058 172.646 72.6851C172.303 72.9644 171.361 74.547 170.59 76.1296C168.791 80.0395 165.708 82.1807 162.625 81.8083C160.655 81.6221 160.141 81.0636 159.97 78.55C159.713 76.2227 164.509 48.7599 166.308 41.6848C166.736 40.2884 166.051 40.1022 159.884 40.1022C156.03 40.1022 152.947 40.3815 152.947 40.7539C152.947 41.0331 151.405 49.2254 149.521 58.8141C145.667 78.4569 145.41 81.9945 147.637 86.6492C151.576 95.307 165.28 92.6072 171.875 81.9014L174.187 77.9915L175.643 81.6221C178.641 89.442 183.694 92.5142 193.629 92.6072C199.539 92.7003 201.251 92.328 206.048 89.8144C209.131 88.2318 212.899 85.6252 214.355 84.1357L217.096 81.2498L218.809 84.415C221.378 89.1628 225.232 91.3039 231.228 91.3039C242.533 91.3039 250.584 82.46 253.496 66.7271C254.524 61.5138 254.781 61.0484 257.35 60.3036C258.892 59.9312 260.348 59.6519 260.433 59.8381C260.605 60.0243 260.176 62.8171 259.405 66.1685C257.864 73.6161 258.378 82.2738 260.605 85.6252C264.459 91.3039 274.651 93.1658 281.331 89.5351C287.84 85.9045 293.578 76.0365 294.863 66.2616C295.548 61.3276 295.634 61.2345 299.402 60.0243C301.458 59.3727 303.256 58.9072 303.342 59.0003C303.428 59.0934 302.057 66.4478 300.344 75.1987L297.09 91.3039H303.77C309.337 91.3039 310.451 91.0246 310.879 89.6282C311.05 88.7904 312.078 83.8564 313.02 78.7362C314.048 73.6161 314.99 68.589 315.247 67.5649C315.418 66.5409 316.703 64.9583 318.159 64.0274C324.154 60.2105 326.895 63.4688 325.182 72.3127C323.64 80.7843 323.983 84.2288 326.467 87.4871C330.92 93.2589 339.228 93.352 344.966 87.7664C348.307 84.5081 352.503 76.8744 352.503 74.0815C352.503 71.568 349.334 72.4989 348.221 75.3848C346.679 79.5741 343.682 82.1807 340.855 81.8083C337.772 81.436 337.344 79.2017 338.8 71.6611C340.684 61.9793 338.372 56.4868 331.605 54.6249L327.58 53.5077L335.973 46.9912L344.367 40.5677L340.256 40.2884C336.316 40.0091 335.888 40.2884 327.58 47.2704C322.955 51.2735 318.759 54.6249 318.33 54.8111C317.988 54.9042 319.101 47.6428 320.985 38.5196C322.784 29.3964 324.24 21.5765 324.24 21.111C324.24 20.1801 312.164 21.2041 311.222 22.2281C310.793 22.7867 304.541 51.9251 304.541 53.6008C304.541 54.0663 299.231 55.9282 297.689 55.9282C296.576 55.9282 296.062 54.8111 295.634 51.2735C294.521 42.3365 288.44 37.961 279.618 40.0091C273.965 41.3124 269.512 44.5707 266.257 49.5978C263.945 53.3216 260.005 55.9282 256.665 55.9282C255.294 55.9282 254.866 55.0903 254.352 51.739C253.068 42.2434 246.987 37.8679 238.165 40.0091C232.256 41.4986 227.288 45.4086 223.691 51.5528C220.436 57.0453 217.182 67.4718 217.182 72.3127C217.182 74.7332 216.582 75.9434 214.355 77.7122C210.159 81.2498 205.791 82.9255 200.995 82.9255C191.83 82.9255 189.261 79.0155 189.432 65.2376C189.775 38.9851 203.05 13.3842 212.471 20.9248C214.869 22.7867 214.698 28.9309 212.214 32.5616C211.186 34.1442 210.33 35.5406 210.33 35.8199C210.33 36.0061 211.529 36.6577 212.899 37.2163C218.038 39.0782 221.55 35.8199 221.635 28.8378C221.721 20.087 217.267 15.8046 207.418 15.2461C203.65 15.0599 200.138 15.4323 198.254 16.177ZM246.387 48.1083C246.987 50.0633 246.901 50.9942 245.788 52.3906C244.075 54.3456 243.818 59.8381 245.274 60.3967C246.73 60.8622 246.558 63.2826 244.589 69.9854C241.848 79.8534 236.281 85.0666 232.684 81.1567C229.6 77.8053 230.8 66.0754 235.253 55.0903C238.765 46.5257 244.503 42.895 246.387 48.1083ZM287.754 48.6668C288.354 50.5287 288.183 51.4597 287.155 52.6699C285.528 54.4387 285.185 59.1865 286.641 60.2105C289.382 61.9793 284.157 77.8053 279.618 81.3429C276.449 83.8564 273.109 82.2738 272.338 77.8984C271.653 73.8022 273.195 64.1205 275.593 57.2315C279.104 47.2704 285.785 42.5226 287.754 48.6668Z" fill="#E07204"/>
<path d="M157.657 20.8315C152.604 25.4862 155.773 34.5164 162.453 34.5164C166.735 34.5164 170.504 30.0478 169.733 25.7655C168.62 19.4351 162.025 16.7354 157.657 20.8315Z" fill="#E07204"/>
</svg>
